Coordinates
version=1
nRows=23
nColumns=33
inDegrees=yes

Units are S.I. units (second, meters, Newtons, ...)
Angles are in degrees.

endheader
time	ground_thorax_rot_x	ground_thorax_rot_y	ground_thorax_rot_z	ground_thorax_tx	ground_thorax_ty	ground_thorax_tz	clav_prot_r	clav_elev_r	scapula_abduction_r	scapula_elevation_r	scapula_upward_rot_r	scapula_winging_r	shoulder_elv_r	plane_of_elev_r	axial_rot_r	elbow_flexion_r	pro_sup_r	wrist_flex_r	wrist_dev_r	clav_prot_l	clav_elev_l	scapula_abduction_l	scapula_elevation_l	scapula_upward_rot_l	scapula_winging_l	shoulder_elv_l	plane_of_elev_l	axial_rot_l	elbow_flexion_l	pro_sup_l	wrist_flex_l	wrist_dev_l	
3.0000	37.324913	17.749565	21.732881	-155.445313	817.926020	7.895997	15.885807	38.252201	39.930574	45.000000	-45.000000	1713.320906	-289.045837	32.770237	60.491271	383.985258	189.101202	9.486783	3.582262	10.813685	-45.000000	-39.074313	45.000000	-42.931943	-3502.395847	436.240193	19.097216	-51.750213	743.896265	159.543749	-4.406669	-11.252075	
3.0100	37.179547	18.297921	22.418679	-150.765805	815.732528	8.025769	15.931978	38.276448	39.904596	45.000000	-45.000000	1713.533842	-289.263871	32.718515	61.171531	383.750449	191.044511	9.315596	3.500641	10.813297	-45.000000	-39.058797	45.000000	-42.963526	-3502.686764	436.001456	19.082500	-51.724211	743.830711	159.530285	-4.605353	-11.350115	
3.0200	37.007437	18.881692	23.166255	-145.958911	813.395905	8.139673	15.966606	38.300485	39.848117	45.000000	-45.000000	1713.757601	-289.499206	32.650184	61.958194	383.498456	192.981126	9.145946	3.417980	10.820746	-45.000000	-39.027599	45.000000	-43.057127	-3502.988259	435.738784	19.074965	-51.640172	743.723029	159.018644	-4.789802	-11.514458	
3.0300	36.806917	19.499757	23.970834	-141.044637	810.929027	8.238263	15.982555	38.322856	39.754748	45.000000	-45.000000	1713.985859	-289.753163	32.572323	62.842256	383.228811	194.908022	8.978473	3.332245	10.847296	-45.000000	-38.982686	45.000000	-43.215382	-3503.297046	435.448253	19.085706	-51.463686	743.556971	157.840275	-4.933836	-11.761073	
3.0400	36.578311	20.142776	24.828750	-136.044174	808.347323	8.322334	15.982169	38.340075	39.627407	45.000000	-45.000000	1714.225467	-290.022349	32.477859	63.803725	382.939426	196.864566	8.810008	3.247765	10.884877	-45.000000	-38.919790	45.000000	-43.421837	-3503.608600	435.121763	19.118909	-51.135413	743.298427	155.702314	-4.997643	-12.114613	
3.0500	36.321120	20.803281	25.734329	-130.979968	805.668203	8.392151	15.974015	38.354067	39.472037	45.000000	-45.000000	1714.475942	-290.308844	32.362024	64.838097	382.624055	198.908012	8.636426	3.169896	10.924714	-45.000000	-38.834398	45.000000	-43.671886	-3503.923427	434.752014	19.186530	-50.554438	742.904815	152.246434	-4.923553	-12.601854	
3.0600	36.032663	21.482336	26.687704	-125.875432	802.910909	8.447409	15.919738	38.340495	39.281590	45.000000	-45.000000	1714.740501	-290.608942	32.216929	65.927773	382.265908	201.200242	8.445620	3.108139	10.994444	-45.000000	-38.733483	45.000000	-43.951311	-3504.224565	434.308810	19.322537	-49.562087	742.258838	146.582855	-4.565806	-13.269491	
3.0700	35.710217	22.169372	27.679622	-120.754780	800.096399	8.487172	15.840250	38.310422	39.054239	45.000000	-45.000000	1715.010775	-290.920141	32.056833	67.089436	381.866597	203.848977	8.230859	3.080558	11.081249	-45.000000	-38.620324	45.000000	-44.240591	-3504.512006	433.788950	19.536217	-48.043651	741.291573	138.223637	-3.814000	-14.128301	
3.0800	35.360730	22.839997	28.685277	-115.642957	797.247518	8.510281	15.763018	38.260718	38.800654	45.000000	-45.000000	1715.305688	-291.242697	31.858615	68.326824	381.351992	207.586834	7.939751	3.146819	11.169858	-45.000000	-38.511602	45.000000	-44.506677	-3504.786988	433.121251	19.915067	-45.292914	739.535106	123.479388	-2.026865	-15.297431	
3.0900	34.983152	23.483988	29.693095	-110.565341	794.388956	8.515698	15.692705	38.217289	38.524045	45.000000	-45.000000	1715.619402	-291.576747	31.635378	69.626326	380.739267	212.257075	7.593458	3.307837	11.241897	-45.000000	-38.411002	45.000000	-44.720635	-3505.057001	432.349428	20.393147	-41.631418	737.163860	104.053540	0.606303	-16.633966	
3.1000	34.586918	24.089434	30.690021	-105.547854	791.547233	8.502844	15.632716	38.184397	38.232793	45.000000	-45.000000	1715.961450	-291.911332	31.383301	70.911781	380.033539	217.784459	7.209929	3.554480	11.290864	-45.000000	-38.322231	45.000000	-44.872345	-3505.324637	431.505035	20.916672	-37.375966	734.336185	81.578394	3.877353	-18.004505	
3.1100	34.166166	24.661230	31.679316	-100.616638	788.750279	8.471738	15.566461	38.169569	37.920149	45.000000	-45.000000	1716.314962	-292.238963	31.138114	72.096116	379.321437	223.409892	6.865881	3.830736	11.322595	-45.000000	-38.245418	45.000000	-44.958044	-3505.583497	430.700643	21.338523	-33.571612	731.702329	61.669326	6.931078	-19.129251	
3.1200	33.725787	25.192326	32.656447	-95.798114	786.027224	8.423189	15.524077	38.160365	37.597755	45.000000	-45.000000	1716.696613	-292.547620	30.883892	73.039692	378.595731	229.375337	6.585709	4.142932	11.322828	-45.000000	-38.180517	45.000000	-44.994901	-3505.835897	429.950219	21.648415	-30.281405	729.334334	44.998539	9.638701	-19.978778	
3.1300	33.266492	25.695591	33.623778	-91.118502	783.408200	8.359143	15.470038	38.151119	37.264084	45.000000	-45.000000	1717.080631	-292.834880	30.652722	73.593517	377.910074	235.377031	6.453398	4.469212	11.311998	-45.000000	-38.113887	45.000000	-45.000000	-3506.073532	429.328603	21.767903	-28.206616	727.709649	35.495990	11.338215	-20.413999	
3.1400	32.767445	26.190363	34.617935	-86.603376	780.924029	8.283001	15.439291	38.119523	36.884447	45.000000	-45.000000	1717.502789	-293.050838	30.439553	73.401726	377.218024	242.683332	6.542430	4.887681	11.283577	-45.000000	-38.051852	45.000000	-45.000000	-3506.299187	428.826807	21.727264	-26.997573	726.688501	31.868111	12.153535	-20.545709	
3.1500	32.294090	26.619062	35.545028	-82.276285	778.605439	8.199880	15.466789	38.101022	36.530246	45.000000	-45.000000	1717.903240	-293.230469	30.314399	72.259772	376.445225	252.246301	6.909261	5.496293	11.210283	-45.000000	-37.942870	45.000000	-45.000000	-3506.533623	428.423739	21.617129	-26.370134	726.139709	32.975235	12.230009	-20.480890	
3.1600	31.837298	26.982521	36.401284	-78.158620	776.482440	8.116597	15.560621	38.083554	36.211410	45.000000	-45.000000	1718.300485	-293.347154	30.322670	68.723558	375.312831	269.424182	7.923490	6.645795	11.121726	-45.000000	-37.828528	45.000000	-45.000000	-3506.788161	428.039566	21.578823	-25.231846	725.520951	34.441441	12.247025	-20.475850	
3.1700	31.434220	27.262221	37.137036	-74.268853	774.583122	8.041444	15.631790	38.083878	35.968191	45.000000	-45.000000	1718.642135	-293.453677	30.480826	63.246845	373.883711	292.417416	9.471214	8.246896	11.049439	-45.000000	-37.700533	45.000000	-45.000000	-3507.043109	427.657396	21.630430	-23.832805	724.856726	36.064460	12.229713	-20.506174	
3.1800	30.995474	27.535387	37.875927	-70.622707	772.932287	7.983620	15.647388	38.067566	35.686389	45.000000	-45.000000	1718.999343	-293.498358	30.721486	56.284990	372.295794	319.370353	11.431978	10.137719	11.032798	-45.000000	-37.633291	45.000000	-45.000000	-3507.269277	427.304860	21.685015	-22.335941	724.185848	37.671591	12.165740	-20.534409	
3.1900	30.606912	27.737797	38.513121	-67.232551	771.549624	7.952579	15.606405	38.066033	35.472335	45.000000	-45.000000	1719.301597	-293.585885	30.975329	49.845309	370.843389	343.742453	13.254015	11.882612	11.033782	-45.000000	-37.566594	45.000000	-45.000000	-3507.467649	426.967778	21.753332	-21.107830	723.543552	38.881035	12.103680	-20.515393	
3.2000	30.203710	27.932901	39.135281	-64.108285	770.448336	7.957292	15.493899	38.033092	35.246896	45.000000	-45.000000	1719.595494	-293.679784	31.185711	44.212148	369.622601	364.621935	14.871422	13.356105	11.098174	-45.000000	-37.557231	45.000000	-45.000000	-3507.619846	426.661632	21.797561	-20.123659	722.952560	39.717310	12.029673	-20.449188	
3.2100	29.848873	28.074133	39.674317	-61.257272	769.633642	8.005650	15.352720	37.999002	35.072108	45.000000	-45.000000	1719.845345	-293.827328	31.293736	40.904593	368.852376	377.264238	15.853947	14.248418	11.161607	-45.000000	-37.543969	45.000000	-45.000000	-3507.740382	426.384571	21.816781	-19.577834	722.440860	39.991156	11.964052	-20.316622	
3.2200	29.473264	28.219011	40.218644	-58.684851	769.101975	8.103994	15.240027	37.943761	34.828330	45.000000	-45.000000	1720.125017	-293.942099	31.295633	39.565484	368.489577	383.104097	16.296760	14.619055	11.225022	-45.000000	-37.575467	45.000000	-45.000000	-3507.841008	426.172793	21.768667	-19.268250	722.022998	39.923629	11.864555	-20.144019	
